<mxfile host="app.diagrams.net" modified="2023-12-13T16:32:52.344Z" agent="Mozilla/5.0 (Windows NT 10.0; Win64; x64) AppleWebKit/537.36 (KHTML, like Gecko) Chrome/120.0.0.0 Safari/537.36" version="22.1.8" etag="iv4L60OSgq8EBEnHxcEP" type="github">
  <diagram name="Page-1" id="WC78ay_m2E_IGRYGhFcw">
    <mxGraphModel>
      <root>
        <mxCell id="0" />
        <mxCell id="1" parent="0" />
      </root>
    </mxGraphModel>
  </diagram>
</mxfile>
